<svg width="312" height="298" viewBox="0 0 312 298" fill="none" xmlns="http://www.w3.org/2000/svg">
    <path d="M72.672 29.6634C74.8399 27.842 77.6126 26.8794 80.5178 27.1756C81.5797 27.2793 82.5236 26.5093 82.6268 25.4431C82.6415 25.295 82.6415 25.1469 82.6268 25.0136C82.5825 24.5102 82.5678 23.9919 82.5825 23.4736C82.5973 22.9701 82.6415 22.437 82.73 21.8891L82.7743 21.5929C83.3199 18.3648 84.9865 15.6549 87.2577 13.8777C89.4994 12.1303 92.3312 11.2714 95.2659 11.7009L95.5019 11.7305C96.0033 11.8193 96.49 11.9378 96.9619 12.0859C97.4191 12.234 97.891 12.4265 98.363 12.6486C99.3216 13.1225 100.487 12.7226 100.944 11.7601C101.018 11.6269 101.062 11.4788 101.091 11.3307C101.961 8.57637 103.702 6.32556 105.899 4.8744C108.067 3.43799 110.692 2.80123 113.391 3.26031C114.453 3.43801 115.456 3.7786 116.37 4.23764C117.329 4.72633 118.214 5.34826 118.995 6.10349C119.777 6.84389 120.986 6.79946 121.724 6.01464C121.857 5.88136 121.96 5.73329 122.034 5.57038C123.213 3.58607 124.895 2.03123 126.856 1.06868C128.758 0.135775 130.941 -0.234447 133.154 0.150558C135.557 0.565169 137.666 1.77947 139.274 3.51203C140.955 5.31863 142.091 7.67331 142.474 10.2644L142.489 10.3088V10.3533C142.548 10.6494 142.666 10.916 142.843 11.1529L142.873 11.1973L143.153 11.4787L143.212 11.5231L143.3 11.5823C143.33 11.5972 143.359 11.612 143.374 11.6268C143.625 11.7748 143.905 11.8785 144.2 11.8933H144.716C144.79 11.8785 144.878 11.8637 144.952 11.8341C145.689 11.612 146.456 11.4787 147.238 11.4343C148.02 11.3898 148.801 11.4194 149.612 11.5675C152.282 12.0266 154.582 13.463 156.234 15.5067C157.96 17.6094 158.992 20.334 159.081 23.2663C159.11 24.3325 159.995 25.1765 161.057 25.1617C161.293 25.1617 161.514 25.1025 161.721 25.0284C162.104 24.8952 162.517 24.7767 162.93 24.6879C162.045 26.4352 161.411 28.3603 161.072 30.4186L160.998 30.8628C160.88 31.6625 160.806 32.4917 160.791 33.3358V33.6171C156.854 33.7356 153.152 35.2312 150.173 37.7337C146.707 40.6509 144.215 44.9304 143.477 49.9507C142.828 54.3784 143.654 58.7023 145.542 62.345C147.223 65.588 149.775 68.2831 152.887 70.0451L152.872 70.0895C152.739 70.6523 152.636 71.215 152.547 71.7925C152.282 73.6139 152.267 75.4057 152.459 77.1532C151.338 78.175 150.055 78.9598 148.669 79.4337C147.076 79.9816 145.336 80.1593 143.551 79.8483C142.489 79.6706 141.486 79.33 140.572 78.871C139.613 78.3823 138.728 77.7604 137.947 77.0051C137.165 76.2647 135.956 76.3092 135.218 77.094C135.145 77.168 135.086 77.2421 135.027 77.3309C133.788 78.9746 132.18 80.2481 130.351 81.0182C128.582 81.7586 126.62 82.0251 124.629 81.6846C122.948 81.4032 121.399 80.7072 120.072 79.7299C118.715 78.7229 117.58 77.405 116.739 75.8798C116.429 75.2135 115.766 74.7544 114.984 74.7544C114.409 74.7544 113.908 75.0061 113.554 75.3912C112.344 76.5462 110.899 77.4199 109.35 77.9085C107.817 78.3972 106.165 78.5305 104.469 78.2491C102.197 77.8641 100.206 76.7683 98.6283 75.1838C96.9912 73.5401 95.8114 71.3929 95.2952 68.994C95.074 67.9427 94.0416 67.2763 92.9945 67.5132C92.729 67.5725 92.4783 67.6909 92.2718 67.839C91.2247 68.4758 90.0744 68.92 88.865 69.1718C87.6557 69.4087 86.4021 69.4383 85.119 69.231C82.0809 68.7127 79.5147 66.9061 77.8187 64.4036C76.108 61.8566 75.2968 58.599 75.7835 55.2372C75.8425 54.867 75.9015 54.4968 75.99 54.1414C76.0784 53.786 76.1669 53.4455 76.2702 53.1345C76.6094 52.1868 76.1669 51.1206 75.2231 50.706C72.8486 49.6546 70.9167 47.7591 69.6927 45.4195C68.4834 43.0947 67.9524 40.3253 68.3801 37.4674C68.8521 34.254 70.4154 31.5441 72.6128 29.7077L72.672 29.6634ZM162.62 37.5265C158.947 37.1563 155.423 38.3706 152.665 40.6807C149.892 43.0056 147.916 46.4409 147.311 50.4984C146.78 54.0968 147.444 57.6063 148.978 60.5382C150.526 63.5147 152.974 65.8989 155.983 67.2314C156.912 67.6461 157.369 68.7122 157.03 69.66C156.897 70.0746 156.779 70.504 156.676 70.9483C156.573 71.4073 156.484 71.8664 156.411 72.3402C155.791 76.5902 156.824 80.7068 158.992 83.9203C161.13 87.0893 164.389 89.3845 168.239 90.0362C169.861 90.3176 171.454 90.2731 172.987 89.9622C174.536 89.6512 176.011 89.0736 177.338 88.2592C177.544 88.1111 177.795 87.9927 178.061 87.9334C179.108 87.7113 180.125 88.3777 180.361 89.4142C180.715 91.0135 181.29 92.524 182.057 93.9012C182.072 93.9308 182.087 93.9604 182.116 93.99C182.795 95.1895 183.635 96.2853 184.579 97.2478C186.57 99.2469 189.107 100.639 191.983 101.127C194.136 101.498 196.23 101.32 198.177 100.698C200.182 100.061 202.026 98.9358 203.574 97.4402C203.707 97.2921 203.869 97.1736 204.061 97.07C205.005 96.5665 206.17 96.9219 206.672 97.8548C207.733 99.8391 209.193 101.557 210.948 102.86C212.63 104.104 214.591 104.978 216.73 105.333C219.266 105.762 221.773 105.437 224 104.489C226.316 103.511 228.366 101.897 229.929 99.8093C229.988 99.7353 230.047 99.6464 230.121 99.5724C230.858 98.7876 232.068 98.758 232.849 99.4835C233.837 100.431 234.958 101.231 236.182 101.838C237.347 102.43 238.63 102.86 239.972 103.082C243.645 103.704 247.229 102.727 250.09 100.639C252.995 98.5062 255.178 95.2187 256.004 91.2796C256.033 91.1167 256.077 90.9538 256.151 90.8057C256.608 89.8432 257.759 89.4285 258.717 89.8876C259.263 90.1393 259.838 90.3763 260.428 90.5539C261.018 90.7316 261.608 90.8797 262.213 90.9834L262.508 91.0278C266.239 91.5757 269.837 90.4947 272.684 88.2587C275.56 86.0078 277.668 82.5871 278.362 78.5149L278.421 78.1447C278.775 75.6865 278.583 73.2726 277.949 71.0663C277.285 68.7858 276.135 66.698 274.601 64.98C273.893 64.1803 273.967 62.9513 274.763 62.2405C274.822 62.1812 274.896 62.1368 274.97 62.0776C276.43 60.9077 277.698 59.4417 278.671 57.7241C279.63 56.036 280.308 54.1109 280.603 52.0229C281.223 47.773 280.19 43.6564 278.022 40.4429C275.884 37.2739 272.625 34.9786 268.775 34.327C267.655 34.1345 266.519 34.0901 265.413 34.1937C264.292 34.2974 263.215 34.5343 262.198 34.8897C261.991 34.9785 261.77 35.023 261.534 35.023C260.472 35.0526 259.587 34.2085 259.558 33.1275C259.455 29.4402 258.142 25.99 255.959 23.3246C253.85 20.748 250.93 18.9116 247.553 18.3343C246.535 18.1566 245.532 18.1121 244.544 18.1714C243.556 18.2306 242.583 18.4083 241.624 18.6897C241.55 18.7193 241.477 18.7341 241.388 18.7489H240.872C240.577 18.7193 240.282 18.6304 240.046 18.4823C240.017 18.4675 239.987 18.4527 239.972 18.4379L239.884 18.3787L239.825 18.3343L239.545 18.0529L239.515 18.0085C239.338 17.7715 239.22 17.505 239.161 17.2088V17.1644L239.146 17.12C238.66 13.8474 237.214 10.871 235.106 8.59043C233.056 6.38401 230.386 4.84395 227.333 4.32566C224.516 3.8518 221.758 4.31085 219.325 5.4955C216.833 6.72458 214.694 8.7089 213.205 11.2262C213.131 11.3891 213.028 11.5372 212.895 11.6705C212.172 12.4553 210.948 12.4849 210.167 11.7593C209.178 10.8116 208.058 10.0119 206.833 9.40483C205.654 8.8125 204.385 8.38306 203.043 8.16095C199.622 7.58345 196.274 8.38307 193.516 10.2045C190.729 12.0407 188.531 14.9135 187.425 18.4084C187.396 18.5565 187.337 18.7045 187.278 18.8378C186.806 19.8004 185.655 20.2002 184.697 19.7263C184.107 19.445 183.517 19.1933 182.927 19.0007C182.337 18.8082 181.718 18.6601 181.069 18.5565L180.774 18.512C177.043 17.9641 173.444 19.0451 170.598 21.2812C169.713 21.9771 168.902 22.7768 168.179 23.6801C168.135 23.7393 168.09 23.7986 168.046 23.8578C166.498 25.8569 165.392 28.3004 164.934 31.0249L164.875 31.3951C164.772 32.0911 164.713 32.7723 164.698 33.409C164.684 34.0606 164.698 34.7121 164.757 35.3637C164.772 35.5118 164.772 35.6598 164.757 35.8079C164.654 36.8741 163.71 37.6441 162.648 37.5405L162.62 37.5265ZM24.002 74.7248C24.2084 74.5767 24.4591 74.4583 24.7246 74.399C25.7717 74.1769 26.7894 74.8433 27.0254 75.8798C27.5415 78.2787 28.7214 80.4259 30.3584 82.0696C31.9365 83.6393 33.9274 84.7499 36.1987 85.1349C37.8948 85.4163 39.5465 85.283 41.0804 84.7943C42.6585 84.2908 44.1038 83.4023 45.3279 82.2325C45.4606 82.0844 45.6228 81.966 45.8146 81.8623C46.7585 81.3588 47.9235 81.7142 48.425 82.6471C49.2657 84.2168 50.416 85.5643 51.8023 86.601C53.1296 87.5784 54.6634 88.2744 56.3593 88.5557C56.4331 88.5705 56.5068 88.5853 56.5806 88.5853C56.6395 88.5853 56.6985 88.6001 56.7723 88.6149C58.6305 88.8519 60.4446 88.5853 62.0965 87.8893C63.9105 87.1341 65.5033 85.8754 66.7422 84.2465C66.9635 83.9207 67.2732 83.6393 67.6714 83.4913C68.4235 83.2099 69.2346 83.4172 69.7656 83.9651C70.5325 84.6759 71.3879 85.2831 72.317 85.7569C73.2461 86.216 74.2342 86.5566 75.2961 86.7343C76.5054 86.9416 77.8623 86.7491 79.2045 86.2456C80.93 85.594 82.6261 84.4242 83.9828 82.8841C85.3249 81.3589 86.313 79.4782 86.6669 77.4051C86.8882 76.0872 86.8587 74.6804 86.5047 73.229C85.8705 73.2142 85.2216 73.1402 84.5727 73.0365C80.4582 72.3406 76.9922 69.912 74.7209 66.5507C72.4792 63.2336 71.4173 58.9984 72.0515 54.645C72.1105 54.2451 72.1842 53.8453 72.2727 53.4455C69.7803 51.9795 67.7452 49.7879 66.3735 47.167C64.7955 44.1313 64.117 40.5329 64.648 36.8603C65.2527 32.6694 67.3322 29.1154 70.2229 26.687C71.1815 25.8873 72.2286 25.2061 73.3495 24.6582C73.8657 21.1191 73.2315 17.9502 71.8599 15.4031C70.7391 13.3448 69.1168 11.6862 67.2289 10.5906C65.3706 9.50954 63.2321 8.99124 61.0495 9.16896C58.4834 9.37627 55.8288 10.5461 53.4102 12.9154C52.6728 13.6854 51.4635 13.7151 50.6965 12.9895C49.9149 12.2491 49.03 11.6123 48.0714 11.1236C47.1423 10.6498 46.1542 10.324 45.0923 10.1463C42.3934 9.68726 39.7681 10.324 37.6002 11.7604C35.4027 13.2116 33.6623 15.4624 32.7925 18.2167C32.763 18.3648 32.704 18.5129 32.645 18.6461C32.173 19.6087 31.0227 20.0085 30.0641 19.5346C29.5922 19.3125 29.135 19.12 28.663 18.9719C28.1911 18.8238 27.7044 18.7054 27.203 18.6165L26.967 18.5869C24.0322 18.1575 21.186 19.0163 18.9588 20.7637C16.6876 22.5407 15.0209 25.2506 14.4754 28.479L14.4311 28.7751C14.3426 29.3379 14.2984 29.8709 14.2837 30.3596C14.2689 30.8779 14.2837 31.3814 14.3279 31.8997C14.3426 32.0478 14.3426 32.181 14.3279 32.3291C14.2247 33.3953 13.2808 34.1653 12.2189 34.0617C9.32835 33.7655 6.54097 34.728 4.37307 36.5494C2.19038 38.3857 0.612337 41.0955 0.140362 44.3091C-0.272603 47.1671 0.243599 49.9363 1.45295 52.2613C2.67705 54.601 4.60905 56.4965 6.98331 57.5477C7.91242 57.9623 8.36963 59.0285 8.0304 59.9762C7.92717 60.302 7.83868 60.6426 7.75019 60.998C7.66171 61.3534 7.60271 61.7236 7.54372 62.0938C7.05702 65.4701 7.86818 68.7279 9.57894 71.2602C11.275 73.7628 13.8264 75.5693 16.8793 76.0876C18.1476 76.3097 19.4159 76.2801 20.6253 76.0283C21.8346 75.7914 22.985 75.3323 24.0321 74.6956L24.002 74.7248ZM309.951 139.155C308.373 136.83 305.984 135.142 303.167 134.653C302.341 134.52 301.515 134.49 300.704 134.55C299.878 134.624 299.096 134.787 298.374 135.053C298.167 135.142 297.946 135.186 297.71 135.186C296.648 135.216 295.763 134.372 295.734 133.291C295.66 130.566 294.687 128.019 293.079 126.065C291.531 124.169 289.392 122.822 286.914 122.407C286.162 122.274 285.425 122.244 284.702 122.289C283.98 122.333 283.272 122.466 282.578 122.674C282.505 122.703 282.431 122.718 282.343 122.733H281.826C281.531 122.703 281.236 122.614 281 122.466C280.971 122.452 280.941 122.437 280.927 122.422L280.838 122.363L280.779 122.318L280.499 122.037L280.47 121.993C280.293 121.756 280.175 121.489 280.116 121.193V121.148L280.101 121.104C279.747 118.69 278.685 116.484 277.122 114.81C275.617 113.196 273.656 112.056 271.414 111.686C269.35 111.33 267.329 111.671 265.559 112.545C263.73 113.448 262.167 114.899 261.061 116.736C260.987 116.898 260.884 117.046 260.751 117.18C260.014 117.965 258.805 117.994 258.023 117.269C257.286 116.573 256.474 115.98 255.575 115.536C254.719 115.107 253.79 114.796 252.802 114.618C250.295 114.189 247.847 114.781 245.826 116.114C243.776 117.461 242.169 119.564 241.357 122.111C241.328 122.259 241.269 122.407 241.21 122.54C240.738 123.503 239.588 123.903 238.629 123.429C238.187 123.221 237.759 123.044 237.331 122.896C236.904 122.762 236.446 122.644 235.974 122.57L235.753 122.54C233.025 122.14 230.385 122.94 228.291 124.569C226.167 126.228 224.618 128.745 224.117 131.766L224.073 132.047C223.999 132.58 223.955 133.069 223.94 133.528C223.925 134.002 223.94 134.476 223.984 134.949C223.999 135.098 223.999 135.246 223.984 135.394C223.881 136.46 222.937 137.23 221.875 137.126C219.176 136.86 216.595 137.748 214.575 139.436C212.54 141.154 211.065 143.686 210.637 146.678C210.253 149.343 210.74 151.935 211.861 154.097C212.997 156.288 214.796 158.05 217.008 159.028C217.937 159.442 218.394 160.509 218.04 161.456C217.952 161.752 217.864 162.063 217.79 162.389C217.716 162.73 217.642 163.07 217.598 163.411C217.141 166.55 217.893 169.586 219.501 171.955C221.079 174.28 223.468 175.968 226.285 176.457C227.465 176.664 228.644 176.635 229.765 176.413C230.886 176.19 231.963 175.761 232.921 175.183C233.128 175.035 233.379 174.917 233.644 174.858C234.691 174.636 235.709 175.302 235.945 176.338C236.21 177.538 236.638 178.678 237.228 179.715C237.729 180.603 238.349 181.403 239.042 182.114C240.502 183.58 242.375 184.601 244.469 184.957C246.047 185.223 247.581 185.09 249.011 184.646C250.472 184.172 251.828 183.358 252.964 182.262C253.097 182.114 253.259 181.995 253.451 181.892C254.395 181.388 255.56 181.743 256.061 182.676C256.843 184.142 257.919 185.401 259.217 186.364C260.456 187.282 261.887 187.919 263.45 188.185C265.308 188.496 267.137 188.259 268.774 187.563C270.47 186.852 271.975 185.668 273.125 184.142C273.184 184.068 273.243 183.98 273.316 183.906C274.054 183.121 275.263 183.091 276.045 183.817C276.782 184.513 277.593 185.09 278.493 185.549C279.348 185.979 280.278 186.29 281.266 186.467C283.965 186.926 286.575 186.216 288.669 184.676C290.808 183.106 292.4 180.692 293.02 177.79C293.049 177.627 293.093 177.464 293.167 177.301C293.624 176.338 294.775 175.924 295.733 176.383C296.131 176.575 296.544 176.738 296.987 176.872C297.414 177.005 297.857 177.109 298.285 177.183L298.506 177.212C301.234 177.612 303.874 176.812 305.969 175.183C308.092 173.525 309.641 171.007 310.142 167.987L310.187 167.705C310.452 165.884 310.305 164.107 309.833 162.463C309.346 160.775 308.491 159.235 307.37 157.976C306.662 157.177 306.736 155.948 307.532 155.237C307.591 155.178 307.665 155.133 307.738 155.074C308.8 154.215 309.729 153.149 310.437 151.89C311.145 150.646 311.647 149.225 311.868 147.67C312.325 144.53 311.573 141.495 309.965 139.126L309.951 139.155ZM272.535 292.835H218.349C216.579 286.897 215.252 277.819 213.644 266.92C211.447 251.994 208.748 233.617 203.911 215.683C203.866 215.49 203.837 215.312 203.852 215.12C203.689 210.366 204.117 206.398 205.548 202.844C207.023 199.201 209.5 196.091 213.394 193.129C215.311 191.663 219.647 188.598 224.381 185.444C227.272 183.519 230.31 181.565 233.038 179.921C232.979 179.788 232.92 179.639 232.876 179.506C232.109 179.817 231.327 180.054 230.516 180.217C228.953 180.528 227.316 180.572 225.649 180.276C223.408 179.891 221.358 178.973 219.617 177.655C217.14 179.225 214.264 181.091 211.373 182.956C207.023 185.77 202.613 188.613 198.144 191.368C198.041 191.427 197.938 191.486 197.834 191.545C196.861 191.975 195.725 191.531 195.283 190.553C193.38 186.214 191.286 182.038 188.971 178.099C186.655 174.16 184.104 170.458 181.317 167.067C161.259 142.663 174.562 124.73 184.561 111.269C186.36 108.855 188.042 106.589 189.354 104.501C186.478 103.657 183.942 102.087 181.862 100.014C181.346 99.4959 180.859 98.948 180.417 98.3852C177.113 103.583 170.064 114.393 164.105 122.626C159.991 128.313 156.26 132.918 154.298 134.014C154.047 134.162 153.752 134.265 153.442 134.295C152.513 134.369 146.673 132.015 140.228 129.186C132.515 125.81 123.696 121.767 121.749 120.671C121.159 120.375 120.731 119.783 120.672 119.087C120.584 117.976 121.174 113.948 121.955 108.632C122.958 101.746 124.3 92.6543 124.861 85.6351C124.595 85.6055 124.315 85.5611 124.05 85.5166C121.749 85.1316 119.64 84.1987 117.856 82.866C117.487 82.5994 117.148 82.318 116.809 82.0071C116.219 90.5218 114.346 97.5707 112.9 103.005C112.03 106.263 111.337 108.899 111.204 110.75C111.204 111.831 110.334 112.705 109.272 112.705C108.535 112.705 108.254 112.72 108.033 112.72C106.75 112.764 106.632 112.764 104.7 112.112C98.801 110.128 90.7339 107.24 83.4483 103.094C76.9442 99.407 71.0748 94.7129 67.8302 88.7749C66.5618 89.9151 65.1313 90.8332 63.5827 91.4848C62.2407 92.0475 60.8248 92.4029 59.35 92.5361C69.1871 112.261 116.232 135.123 134.992 144.248L136.968 145.21C189.618 170.858 192.85 269.302 193.514 292.832H186.051C186.258 289.115 185.314 285.576 183.397 282.748C181.258 279.579 177.999 277.283 174.15 276.632C173.029 276.439 171.893 276.395 170.787 276.498C169.666 276.602 168.59 276.839 167.572 277.194C167.366 277.283 167.145 277.328 166.909 277.328C165.847 277.357 164.962 276.513 164.932 275.432C164.829 271.745 163.517 268.295 161.334 265.629C159.225 263.053 156.305 261.216 152.927 260.639C151.91 260.461 150.907 260.417 149.919 260.476C148.931 260.535 147.957 260.713 146.999 260.994C146.925 261.024 146.851 261.039 146.763 261.054H146.246C145.951 261.024 145.657 260.935 145.421 260.787C145.391 260.772 145.362 260.757 145.347 260.743L145.303 260.713L145.273 260.683L145.214 260.639L144.934 260.358L144.904 260.313C144.727 260.076 144.609 259.81 144.55 259.514V259.469L144.536 259.425C144.049 256.152 142.604 253.176 140.495 250.895C138.445 248.689 135.775 247.149 132.723 246.63C129.906 246.157 127.148 246.616 124.714 247.8C122.222 249.029 120.083 251.014 118.594 253.531C118.52 253.694 118.417 253.842 118.284 253.975C117.547 254.76 116.337 254.79 115.556 254.064C114.568 253.116 113.447 252.317 112.223 251.71C111.043 251.117 109.774 250.688 108.432 250.466C105.011 249.888 101.663 250.688 98.9053 252.509C96.1179 254.345 93.9205 257.218 92.8143 260.713C92.7848 260.861 92.7258 261.009 92.6668 261.143C92.1949 262.105 91.0445 262.505 90.0859 262.031C89.496 261.735 88.9061 261.498 88.3162 261.305C87.7262 261.113 87.1068 260.965 86.4579 260.861L86.1629 260.817C82.4317 260.269 78.8332 261.365 75.9868 263.586C73.1109 265.837 71.002 269.257 70.3088 273.344L70.2498 273.715C70.1466 274.411 70.0876 275.092 70.0729 275.729C70.0581 276.38 70.0729 277.032 70.1319 277.683C70.1466 277.831 70.1466 277.979 70.1319 278.128C70.0286 279.194 69.0848 279.964 68.0229 279.86C64.3506 279.49 60.826 280.704 58.068 283.014C55.2954 285.339 53.3192 288.775 52.7144 292.832V292.876H22.6874C21.2864 292.876 20.136 294.017 20.136 295.438C20.136 296.845 21.2716 298 22.6874 298H272.592C273.993 298 275.143 296.86 275.143 295.438C275.143 294.031 274.007 292.876 272.592 292.876L272.535 292.835Z" fill="#88CDC8"/>
</svg>
