<svg width="117" height="226" viewBox="0 0 117 226" fill="none" xmlns="http://www.w3.org/2000/svg">
    <path d="M116.498 77.0498C116.306 75.4608 116.048 73.9003 115.741 72.4741C115.282 70.5213 114.688 68.6259 114.037 66.874C113.396 65.2467 112.669 63.6576 111.855 62.1164C111.845 62.1068 111.845 62.0973 111.836 62.0877C111.817 62.059 111.807 62.0303 111.807 62.0303C111.051 60.6901 110.247 59.4074 109.385 58.1439C108.868 57.4355 108.332 56.7271 107.786 56.0379C107.222 55.3391 106.609 54.669 106.083 54.1042C105.068 53.0608 104.005 52.0748 102.943 51.1942C102.436 50.8017 101.947 50.4283 101.43 50.0646C100.846 49.653 100.243 49.27 99.6881 48.9159C98.8649 48.4372 98.0321 47.9969 97.2471 47.6236C96.4239 50.2273 95.1699 52.697 93.5617 54.87C92.4321 56.4016 91.1686 57.8469 89.7231 59.0916C88.1915 60.4126 86.4589 61.5231 84.6114 62.3462C81.9503 63.5428 79.088 64.1842 76.1684 64.2703H76.1397C76.1109 64.2703 76.1014 64.2321 76.1301 64.2225L76.1397 64.2129H76.1588C77.4032 63.8683 78.6094 63.4567 79.7965 62.9493C80.9835 62.442 82.1513 61.8581 83.2425 61.2358C84.4678 60.5179 85.6261 59.7138 86.7174 58.8618C87.7034 58.0769 88.6511 57.2536 89.4552 56.4591C90.2019 55.6741 90.9198 54.8605 91.5899 53.9894C92.2217 53.147 92.7865 52.2855 93.3034 51.3761C93.7725 50.5241 94.2033 49.6434 94.5957 48.7436C94.9499 47.8343 95.2658 46.9057 95.5338 45.9676C95.7827 45.0104 95.9837 44.0435 96.1177 43.2011C96.1465 43.048 96.1656 42.8852 96.1848 42.7321C96.2996 41.7652 96.3666 40.808 96.3858 39.8411C96.3762 38.7881 96.3188 37.7543 96.1943 36.711C96.0507 35.7154 95.8689 34.739 95.6583 33.8487C95.3232 32.6138 94.9212 31.4364 94.4713 30.3451C94.4521 30.3163 94.4425 30.2781 94.433 30.2589V30.2493C94.0405 29.3878 93.6289 28.5358 93.1502 27.7318C93.1406 27.7031 93.1215 27.6936 93.1215 27.6744C93.0928 27.6266 93.0641 27.5787 93.0353 27.5308C92.5184 26.6501 91.9249 25.8173 91.3027 25.0133C90.6709 24.2092 89.9817 23.4626 89.2829 22.7446C88.4883 21.998 87.6651 21.2896 86.7941 20.6195C85.9325 19.9973 85.071 19.4421 84.1616 18.9156C83.3192 18.4657 82.4577 18.054 81.6248 17.6999C80.6675 17.317 79.7007 17.001 78.8392 16.7617C77.7862 16.4841 76.7236 16.2735 75.6515 16.13C74.6559 16.0151 73.6603 15.9481 72.6647 15.9385C71.5351 15.9577 70.4151 16.0247 69.362 16.1587C68.2707 16.3118 67.2177 16.5512 66.1552 16.8383C65.2266 17.1159 64.3268 17.4223 63.4269 17.786C63.3886 17.8052 63.3408 17.8147 63.3025 17.8435C63.3121 17.853 63.312 17.853 63.312 17.8626C62.6228 18.1593 61.9623 18.4848 61.3497 18.8007V18.7816C61.1678 18.8677 60.9955 18.973 60.8232 19.0592C59.8659 19.624 58.947 20.2366 58.0663 20.9067C57.0229 21.7395 56.0369 22.6202 55.0893 23.5582C54.1225 24.5538 53.2322 25.5876 52.3897 26.6788C51.6718 27.6648 51.0017 28.6795 50.3986 29.7134C49.8147 30.7568 49.2882 31.8098 48.8287 32.9107C48.8096 32.949 48.8 32.9968 48.7808 33.0351C48.7521 33.1213 48.7138 33.1978 48.6851 33.284C48.666 33.3127 48.6277 33.3031 48.6373 33.2649C48.8957 31.5992 49.3265 29.9911 49.9296 28.4115C50.6954 26.3916 51.8249 24.5346 53.146 22.8307C54.4383 21.1651 56.0178 19.7579 57.7313 18.5422C58.7077 17.8434 59.7415 17.2307 60.8041 16.6851C60.5647 15.9384 60.2967 15.2109 60.0287 14.5791C59.6362 13.6889 59.2054 12.8178 58.7268 11.9754C58.229 11.1426 57.6834 10.3289 57.109 9.56305C56.5251 8.81638 55.9028 8.10801 55.2519 7.42836C54.735 6.92102 54.2085 6.44239 53.6533 5.97332C53.5289 5.86802 53.4044 5.76272 53.2704 5.65742C53.1842 5.58084 53.0885 5.51383 53.0023 5.44682C52.9736 5.4181 52.9258 5.38938 52.8875 5.36066C52.8588 5.33195 52.8109 5.30323 52.7917 5.27451C52.7822 5.26494 52.7726 5.25537 52.763 5.25537L52.7343 5.22665C51.9876 4.681 51.2123 4.16409 50.4752 3.70461C49.4988 3.1494 48.5128 2.65161 47.5173 2.22085C46.4164 1.76136 45.306 1.36888 44.3009 1.08172C42.9894 0.727531 41.6589 0.449929 40.3282 0.268046C38.9976 0.0957373 37.6863 0.00958181 36.346 0C34.8335 0.00957201 33.3306 0.105299 31.8566 0.306323C30.2675 0.526494 28.7071 0.851972 27.2904 1.23488C25.7587 1.66564 24.2653 2.18257 22.9156 2.71864C21.2691 3.41745 19.68 4.2024 18.2442 5.02565C16.7413 5.9159 15.3055 6.87318 13.9175 7.93573C12.5582 9.00786 11.2659 10.147 10.0311 11.3722C9.02595 12.3773 8.09742 13.459 7.23594 14.5217C7.20722 14.5504 7.18807 14.5887 7.18807 14.5887C7.1785 14.5983 7.16892 14.6174 7.15935 14.6174C6.11594 15.9672 5.14911 17.3552 4.36421 18.705C3.60798 20.026 2.92831 21.3757 2.36352 22.6394C1.80832 23.97 1.33925 25.3101 0.937202 26.6981C0.5926 27.9904 0.324556 29.2923 0.123535 30.5463C-0.0487747 31.9151 -0.14451 33.2841 -0.163649 34.6625C-0.144503 35.5815 -0.0870686 36.4909 0.00865746 37.3717C4.18226 37.1036 8.41345 38.1662 12.1371 40.4062C11.3139 40.3871 10.1747 39.9563 9.26527 39.8319C6.27849 39.0086 3.22506 38.865 0.276505 39.2958V39.3245C-0.412724 39.4202 -1.10195 39.5542 -1.79118 39.717V39.6978C-10.8373 41.8517 -18.6677 49.2993 -20.7737 58.5368C-23.2052 66.9798 -20.0079 75.7578 -13.8241 81.712C-12.4743 82.9277 -11.048 84.3635 -9.53554 85.7038C-9.46853 85.7612 -9.40153 85.8187 -9.33452 85.8761C-9.2005 85.991 -9.06647 86.1058 -8.93247 86.2207C-8.79845 86.3356 -8.66443 86.4504 -8.53999 86.5557C-5.72573 88.8723 -2.6049 90.6624 0.98473 90.0593C0.2955 90.6337 -0.738329 90.8156 -1.75307 90.8156C-2.24128 90.8156 -2.72948 90.7773 -3.16025 90.7103C-5.53426 90.2412 -7.72644 89.2744 -9.73666 87.982C-13.6998 92.8068 -17.1843 98.0907 -17.6437 104.351C-18.2277 117.36 -5.74489 129.029 7.20771 126.234C8.61489 126.014 10.022 125.708 11.4004 125.287C11.4579 125.267 11.5249 125.258 11.5823 125.229C11.9078 125.133 12.2524 125.019 12.5779 124.894C12.7693 124.827 12.9608 124.76 13.1522 124.684C16.8472 123.276 20.2073 121.046 22.4378 117.705C21.0019 121.85 17.7665 124.741 13.8607 126.502C17.7184 135.127 27.1954 138.305 35.8778 134.983C36.0788 131.518 36.2798 128.053 36.5 124.597C31.5126 119.275 27.0613 113.388 22.8208 107.452L22.8113 107.462C22.6007 107.175 22.3996 106.878 22.189 106.591V106.581C22.3039 106.495 22.4092 106.409 22.5241 106.313C22.7347 106.16 22.9261 105.988 23.1176 105.806C23.5388 105.423 23.9408 105.011 24.3333 104.581C24.496 104.38 24.6683 104.188 24.8406 103.987C26.0468 102.503 27.0711 100.78 28.0093 99.0191H28.0188C28.5166 99.3062 29.0048 99.6126 29.493 99.9284C32.3553 101.738 35.1122 103.834 37.7542 106.064C38.6827 92.6627 39.6783 79.2795 40.6069 65.9066C41.0473 60.8714 41.2292 55.7788 41.8226 50.7531C41.9949 50.0161 42.7703 49.6619 43.4308 50.0448C44.2828 50.6766 44.2445 51.9689 44.7136 52.859C45.8527 55.3765 47.1737 57.6357 48.5904 59.8663C48.734 60.096 48.8776 60.3257 49.0308 60.5555C49.0882 60.6225 49.1361 60.6991 49.1935 60.7661C50.2848 62.1445 51.2421 63.5803 51.5771 65.3418C52.4003 71.8129 52.9843 78.3224 53.4055 84.8412C57.3781 81.663 61.6093 78.7816 65.9934 76.1972C66.3859 75.9675 66.7688 75.7377 67.1613 75.508C67.2283 75.776 67.3049 76.0441 67.3719 76.3121C67.9271 78.4085 68.6067 80.4952 69.2673 82.5726C69.3725 82.8981 69.4779 83.2427 69.5927 83.5681C69.2577 83.9894 68.9226 84.401 68.578 84.8126C68.5206 84.8892 68.4632 84.9562 68.4057 85.0232C63.9927 90.403 59.2542 95.6296 54.2094 100.349C54.6211 111.338 54.8029 122.356 55.205 133.346C55.6166 133.557 56.0187 133.758 56.4111 133.93C57.4067 134.351 58.4118 134.725 59.4457 135.04L59.4361 135.031C60.6136 135.376 61.8197 135.653 63.0356 135.854C64.3949 136.065 65.7543 136.189 67.056 136.247C68.4823 136.275 69.9183 136.228 71.2105 136.132C72.072 136.046 72.924 135.95 73.7665 135.806C74.6376 135.653 75.4991 135.481 76.3511 135.299C77.787 134.945 79.1845 134.514 80.5727 134.035C81.463 133.71 82.3437 133.346 83.2243 132.963C84.0571 132.599 84.8612 132.188 85.6749 131.776C86.3928 131.374 87.1203 130.963 87.8191 130.522C88.5467 130.072 89.2551 129.584 89.8485 129.173C91.1408 128.225 92.3756 127.22 93.4575 126.243C94.5296 125.219 95.5443 124.147 96.4921 123.036C97.4589 121.849 98.3396 120.615 99.1627 119.322C99.7754 118.269 100.34 117.216 100.867 116.116C101.326 115.053 101.728 113.981 102.082 112.89C102.082 112.88 102.092 112.87 102.092 112.861L102.102 112.823C102.236 112.334 102.37 111.837 102.494 111.348C102.638 110.803 102.714 110.238 102.8 109.826C102.877 109.29 102.944 108.754 103.001 108.209C103.049 107.692 103.068 107.156 103.088 106.639C102.724 106.744 102.35 106.849 101.977 106.935C100.551 107.28 99.067 107.471 97.6023 107.471C97.0662 107.471 96.5206 107.443 95.9845 107.385C93.0266 107.089 90.1739 106.083 87.6373 104.542C86.5843 103.91 85.5505 103.212 84.6314 102.407C84.6123 102.388 84.6027 102.379 84.6027 102.35C84.6027 102.302 84.6601 102.245 84.7176 102.273C85.2058 102.513 85.694 102.742 86.163 102.953C86.1918 102.972 86.23 102.982 86.2587 102.991C87.4553 103.499 88.6806 103.949 89.8484 104.293C91.0162 104.628 92.1937 104.896 93.3902 105.088C94.4719 105.241 95.5441 105.327 96.5012 105.356C97.4489 105.365 98.3966 105.327 99.354 105.241C100.043 105.155 100.713 105.04 101.316 104.915C101.881 104.772 102.446 104.609 102.992 104.427C103.135 104.389 103.269 104.341 103.413 104.284C103.777 104.14 104.131 103.996 104.475 103.834C104.657 103.748 104.83 103.681 105.002 103.594C105.126 103.537 105.26 103.47 105.385 103.413C105.413 103.393 105.423 103.384 105.452 103.374C105.471 103.365 105.48 103.355 105.48 103.355C106.265 102.924 107.002 102.446 107.615 102.015C108.199 101.565 108.764 101.096 109.319 100.598C109.951 99.9952 110.525 99.3633 111.09 98.7028C111.751 97.8796 112.344 97.0276 112.87 96.1758C113.445 95.1802 113.962 94.1655 114.393 93.1988C114.823 92.165 115.187 91.1215 115.484 90.1738C115.876 88.7666 116.183 87.3306 116.393 86.0193C116.594 84.5451 116.709 83.0614 116.747 81.7117C116.767 80.113 116.69 78.5144 116.537 77.0499L116.498 77.0498ZM25.164 85.7609C23.0963 83.923 20.7223 81.8169 17.7548 82.1137C14.9117 82.152 11.3507 84.3154 11.8965 87.5126C11.9252 87.6371 11.973 87.7232 12.0592 87.7806C12.0592 87.8094 12.04 87.8189 12.0305 87.8189C11.9443 87.8189 11.7624 87.6466 11.7337 87.5892C10.3457 84.9472 11.9252 82.2859 14.2801 80.8405C11.9061 74.8003 4.15233 73.5846 1.18467 81.2904C1.1368 81.4436 1.05065 81.6542 1.05065 81.7978C1.05065 81.8265 1.00279 81.836 0.983641 81.8169C0.859198 81.233 0.964497 80.5725 1.06979 79.9694C1.67286 74.4269 8.80435 70.9137 12.8824 75.3458C14.0981 76.6764 15.0841 78.4569 15.4192 80.2757C16.4914 79.8258 17.6497 79.6439 18.7219 79.7779C21.7756 79.9885 23.939 82.3913 25.3652 84.909C25.6619 85.4833 26.198 86.2396 26.2555 86.8044C25.9013 86.4215 25.5279 86.0768 25.1737 85.7514L25.164 85.7609ZM47.9084 41.2582C43.2177 36.2901 36.4786 38.9033 32.9368 43.7279C33.9897 44.7809 34.8513 46.2167 35.4256 48.0451C35.6074 48.6003 36.0095 49.347 35.9616 49.8448C35.617 49.3183 35.1958 48.8014 34.7842 48.3227C33.8556 47.2506 32.8697 46.0732 31.6923 45.2308C31.319 44.9532 30.9361 44.7139 30.5244 44.532C29.8926 44.2257 29.2226 44.0438 28.4759 44.0151C24.5128 44.1874 19.6979 46.4944 17.9844 50.1129C17.994 50.1416 17.994 50.1608 17.994 50.1703C18.0227 50.1895 17.994 50.2086 17.9748 50.2086C17.9653 50.2086 17.9557 50.2086 17.9461 50.199C17.6207 48.476 18.9991 46.753 20.0521 45.4797C23.393 41.6411 27.8825 40.5498 31.2807 42.4642C34.4685 35.9261 43.6486 32.6619 48.5018 40.6072C48.8751 41.4113 49.3154 42.5121 49.1814 43.2972C48.8942 42.5409 48.4156 41.8709 47.8891 41.2582L47.9084 41.2582ZM99.6282 83.2736C96.5171 82.5269 93.3198 85.6859 92.8795 88.5193C91.9892 86.5857 93.741 83.5799 95.3683 82.1728C95.5214 82.0483 95.665 81.943 95.8182 81.8377C92.9272 79.5212 89.0313 78.3917 85.8531 80.8805C84.6182 81.7229 82.2826 83.8383 83.0004 85.3222C83.0865 85.3796 83.077 85.3988 83.0291 85.3988C82.9429 85.3988 82.7515 85.3222 82.7228 85.2456C81.9569 83.8289 82.8089 82.0101 83.5939 80.7752C87.3271 75.1849 93.693 76.4771 96.8903 81.273C101.054 79.6648 105.123 84.6521 104.654 88.8642C103.629 86.5189 102.079 84.1449 99.6281 83.2835L99.6282 83.2736Z" fill="#88CDC8"/>
    <path d="M53.1304 134.667C53.1304 134.657 53.1208 134.657 53.1208 134.657C53.0921 133.815 53.0538 132.972 53.0251 132.13C53.0251 132.13 53.0347 132.13 53.0347 132.14C52.9198 129.22 52.8241 126.32 52.7284 123.4C52.4795 115.627 52.221 107.864 51.9051 100.1C52.6135 99.2865 53.3219 98.4633 54.0494 97.6592C58.4048 92.7294 62.9423 87.9237 67.7286 83.5014C67.3361 82.5058 67.0011 81.4912 66.733 80.4764C63.8997 82.7164 60.9224 84.7649 57.9261 86.4115C60.5585 83.98 63.4495 81.5676 66.4745 79.481C66.3118 78.7822 66.1778 78.0738 66.082 77.3845C62.138 80.8595 57.8686 84.1524 53.5227 87.2538C53.5036 87.2634 53.494 87.2825 53.4749 87.2825C52.7856 87.7803 52.106 88.259 51.4072 88.7472V88.7376C51.3785 87.9909 51.3306 87.2634 51.3019 86.5167C51.2349 85.1574 51.1583 83.7885 51.0913 82.4292C50.6031 76.6855 50.7754 70.8557 49.3012 65.3708C49.4448 71.411 49.3874 77.4993 49.0236 83.3577C48.2195 76.7717 47.961 69.9081 48.3248 63.2457C46.573 60.661 44.869 58.0764 43.4809 55.2812C42.2365 72.7704 40.8867 90.2585 39.6901 107.758C39.6423 108.486 39.5944 109.223 39.537 109.95V109.96C39.0105 109.567 38.484 109.185 37.9671 108.792C37.8235 108.696 37.6895 108.581 37.5459 108.476V108.467C34.54 106.188 31.6394 103.757 28.7774 101.297C28.0212 102.713 27.1213 104.025 26.0396 105.116C27.868 106.839 29.4954 108.754 30.4526 111.003C28.9401 109.184 27.1022 107.49 25.3887 105.738C24.9484 106.131 24.4985 106.475 24.0103 106.782C29.17 112.171 33.8795 118.097 38.618 123.945C38.5606 124.855 38.5031 125.755 38.4553 126.664L38.4457 126.655C38.2925 129.096 38.1585 131.556 38.0149 133.997C38.0245 133.997 38.0245 133.987 38.0341 133.987C37.9958 134.696 37.9479 135.414 37.9192 136.122C37.9096 136.122 37.9096 136.131 37.9 136.131C37.4214 144.948 37.0098 153.774 36.7035 162.61C36.1961 176.213 35.9568 189.817 36.0142 203.427C35.9185 210.434 36.4354 217.844 35.9664 224.918C36.7322 224.142 37.5554 223.443 38.4648 222.879C40.3027 222.333 41.5184 224.362 43.0883 224.755C45.0794 224.429 46.5632 223.156 48.3821 222.582C49.6935 222.304 50.6891 223.367 51.8281 223.721C53.2161 223.635 54.4987 222.716 55.7338 222.132C56.1359 221.778 56.6624 221.51 57.208 221.74C58.3567 222.936 59.3714 224.391 60.3382 225.923C58.8353 215.182 58.3662 204.279 57.208 193.492C55.3222 173.925 53.9629 154.311 53.1395 134.668L53.1304 134.667ZM30.2326 105.02C32.7405 107.154 35.421 109.595 37.058 112.343C34.5405 110.265 31.8409 107.69 30.2326 105.02ZM33.1522 112.735C35.2773 114.314 37.4694 116.373 38.7043 118.641C36.7036 116.89 34.5402 114.889 33.1522 112.735ZM41.3465 217.316C40.1308 208.72 40.9636 199.971 40.9732 191.328C41.2795 182.76 40.9828 174.155 42.0549 165.626C42.7824 182.598 41.8443 200.363 41.3465 217.316ZM42.658 130.617L42.6484 130.607V130.761L42.658 130.751C42.658 131.335 42.6484 131.928 42.6388 132.522L42.6292 132.531C42.5431 140.975 42.208 149.446 42.0262 157.699C40.5999 142.986 41.3369 127.976 42.2368 113.243C42.5527 118.383 42.658 123.61 42.6484 128.865C42.6484 128.875 42.6484 128.875 42.658 128.885C42.658 129.459 42.658 130.033 42.6484 130.617L42.658 130.617ZM43.6439 103.41C43.06 92.1243 43.7971 80.7138 44.9937 69.4943C45.5201 80.5602 44.7256 92.4112 43.6439 103.41ZM61.2193 87.8262C58.9889 90.1906 56.3373 92.3348 53.5517 93.8664C53.5517 93.8568 53.5612 93.8473 53.5708 93.8377C53.5708 93.8377 53.5804 93.8377 53.5804 93.8281C55.7821 91.502 58.4911 89.2332 61.2289 87.8261L61.2193 87.8262ZM49.1962 95.982C50.3545 107.431 49.6749 119.521 49.8185 131.133C49.8472 131.105 49.8568 131.143 49.8472 131.181C49.8376 131.21 49.8185 131.248 49.7993 131.248C49.7897 131.248 49.7897 131.239 49.7802 131.239C48.0284 119.665 48.5932 107.642 49.1962 95.982ZM49.1005 141.864C50.6226 153.495 50.9385 166.121 51.1491 177.82C49.2537 166.026 48.8899 153.83 49.1005 141.864ZM51.6084 215.478C50.0386 205.245 50.0768 194.705 50.6799 184.368C51.7808 194.448 51.6659 205.255 51.6084 215.478ZM51.0724 91.3406C51.7616 90.5748 52.7667 89.6749 53.6475 89.3878C52.9199 90.1153 51.934 91.0247 51.0724 91.3406Z" fill="#88CDC8"/>
</svg>
